<svg xmlns="http://www.w3.org/2000/svg" width="270" height="280.552" viewBox="0 0 270 280.552">
  <g id="합치기_7" data-name="합치기 7" transform="translate(3168.999 9657.592)" fill="#fff">
    <path d="M -2909.000244140625 -9378.0400390625 L -3159.000732421875 -9378.0400390625 C -3163.96240234375 -9378.0400390625 -3167.9990234375 -9382.078125 -3167.9990234375 -9387.041015625 L -3167.9990234375 -9639.0390625 C -3167.9990234375 -9644.001953125 -3163.96240234375 -9648.0400390625 -3159.000732421875 -9648.0400390625 L -2936.211669921875 -9648.0400390625 L -2935.5185546875 -9648.0400390625 L -2935.275390625 -9648.6884765625 C -2935.220703125 -9648.8349609375 -2935.147705078125 -9648.9765625 -2935.058837890625 -9649.109375 L -2930.6640625 -9655.701171875 C -2930.28662109375 -9656.267578125 -2929.679931640625 -9656.591796875 -2928.99951171875 -9656.591796875 C -2928.319091796875 -9656.591796875 -2927.71240234375 -9656.267578125 -2927.3349609375 -9655.701171875 L -2922.9404296875 -9649.1103515625 C -2922.85107421875 -9648.9765625 -2922.778076171875 -9648.833984375 -2922.723388671875 -9648.6884765625 L -2922.47998046875 -9648.0400390625 L -2921.787109375 -9648.0400390625 L -2909.000244140625 -9648.0400390625 C -2904.037353515625 -9648.0400390625 -2899.99951171875 -9644.001953125 -2899.99951171875 -9639.0390625 L -2899.99951171875 -9387.041015625 C -2899.99951171875 -9382.078125 -2904.037353515625 -9378.0400390625 -2909.000244140625 -9378.0400390625 Z" stroke="none"/>
    <path d="M -2909.000244140625 -9379.0400390625 C -2904.588623046875 -9379.0400390625 -2900.99951171875 -9382.62890625 -2900.99951171875 -9387.041015625 L -2900.99951171875 -9639.0390625 C -2900.99951171875 -9643.451171875 -2904.588623046875 -9647.0400390625 -2909.000244140625 -9647.0400390625 L -2921.787109375 -9647.0400390625 L -2923.17333984375 -9647.0400390625 L -2923.659912109375 -9648.337890625 C -2923.6875 -9648.412109375 -2923.725341796875 -9648.4853515625 -2923.7724609375 -9648.5556640625 L -2928.1669921875 -9655.146484375 C -2928.42529296875 -9655.5341796875 -2928.79931640625 -9655.591796875 -2928.99951171875 -9655.591796875 C -2929.199462890625 -9655.591796875 -2929.57373046875 -9655.5341796875 -2929.83203125 -9655.146484375 L -2934.22705078125 -9648.5546875 C -2934.2734375 -9648.4853515625 -2934.31103515625 -9648.412109375 -2934.3388671875 -9648.337890625 L -2934.825439453125 -9647.0400390625 L -2936.211669921875 -9647.0400390625 L -3159.000732421875 -9647.0400390625 C -3163.410888671875 -9647.0400390625 -3166.9990234375 -9643.451171875 -3166.9990234375 -9639.0390625 L -3166.9990234375 -9387.041015625 C -3166.9990234375 -9382.62890625 -3163.410888671875 -9379.0400390625 -3159.000732421875 -9379.0400390625 L -2909.000244140625 -9379.0400390625 M -2909.000244140625 -9377.0400390625 L -3159.000732421875 -9377.0400390625 C -3164.522216796875 -9377.0400390625 -3168.9990234375 -9381.517578125 -3168.9990234375 -9387.041015625 L -3168.9990234375 -9639.0390625 C -3168.9990234375 -9644.5625 -3164.522216796875 -9649.0400390625 -3159.000732421875 -9649.0400390625 L -2936.211669921875 -9649.0400390625 C -2936.1318359375 -9649.2529296875 -2936.025390625 -9649.462890625 -2935.890380859375 -9649.6650390625 L -2931.49609375 -9656.255859375 C -2930.902099609375 -9657.146484375 -2929.95068359375 -9657.591796875 -2928.99951171875 -9657.591796875 C -2928.048095703125 -9657.591796875 -2927.0966796875 -9657.146484375 -2926.5029296875 -9656.255859375 L -2922.1083984375 -9649.6650390625 C -2921.9736328125 -9649.462890625 -2921.866943359375 -9649.2529296875 -2921.787109375 -9649.0400390625 L -2909.000244140625 -9649.0400390625 C -2903.476318359375 -9649.0400390625 -2898.99951171875 -9644.5625 -2898.99951171875 -9639.0390625 L -2898.99951171875 -9387.041015625 C -2898.99951171875 -9381.517578125 -2903.476318359375 -9377.0400390625 -2909.000244140625 -9377.0400390625 Z" stroke="none" fill="#008156"/>
  </g>
</svg>
